<svg width="227" height="40" viewBox="0 0 227 40" fill="none" xmlns="http://www.w3.org/2000/svg">
<path d="M0 9.51221H14.6389C17.6544 9.51221 20.5465 10.7101 22.6789 12.8425C24.8112 14.9748 26.0091 17.8669 26.0091 20.8825V39.8997H0V9.51221Z" fill="#58F915"/>
<path d="M50.9622 35.6037V6.4047H63.8933C65.6119 6.38329 67.3066 6.8076 68.8123 7.63624C70.2444 8.41628 71.4458 9.55966 72.2957 10.9514C73.1572 12.3869 73.5988 14.0353 73.5702 15.7093C73.5866 17.3738 73.1531 19.0118 72.3157 20.4505C71.4782 21.8891 70.2678 23.0748 68.8123 23.8826C67.311 24.7246 65.6145 25.1567 63.8933 25.1356H57.0089V35.6037H50.9622ZM57.0089 20.0483H63.5998C64.2952 20.0638 64.9811 19.884 65.5795 19.5292C66.1516 19.1822 66.6087 18.6741 66.8934 18.0685C67.2084 17.4108 67.3664 16.689 67.3552 15.9599C67.3707 15.2079 67.1827 14.4658 66.8111 13.8118C66.434 13.1895 65.8826 12.6916 65.2251 12.3798C64.4752 12.004 63.6473 11.8102 62.8086 11.8142H57.0089V20.0483ZM67.5199 35.6037L60.0949 22.4219L66.5211 21.3801L74.7803 35.6466L67.5199 35.6037Z" fill="#054C2D"/>
<path d="M87.314 35.6467C85.5414 35.668 83.8052 35.143 82.3413 34.143C80.842 33.1136 79.6376 31.7105 78.8472 30.0725C77.9561 28.2279 77.5122 26.1993 77.5512 24.1511C77.5118 22.1066 77.9623 20.0824 78.8651 18.2476C79.6825 16.6081 80.9173 15.2129 82.4451 14.2021C83.97 13.2098 85.7563 12.695 87.5754 12.7235C88.5896 12.711 89.5984 12.8733 90.5576 13.2033C91.4203 13.4997 92.2247 13.9443 92.9347 14.5171C93.6068 15.0636 94.1901 15.7109 94.6639 16.4361C95.132 17.1495 95.4712 17.9396 95.6663 18.7703L94.4133 18.5626V13.1925H100.295V35.2278H94.3202V29.9293L95.6556 29.8076C95.4288 30.6008 95.0654 31.3483 94.5815 32.0165C94.0627 32.7287 93.4358 33.3556 92.7235 33.8745C91.9581 34.4292 91.1132 34.8649 90.2175 35.1669C89.2833 35.4881 88.3019 35.6503 87.314 35.6467ZM88.9394 30.5164C89.9702 30.5373 90.985 30.2587 91.8607 29.7145C92.7063 29.1747 93.3786 28.4029 93.7975 27.4913C94.2784 26.4384 94.5147 25.2904 94.4885 24.1332C94.5134 22.9969 94.277 21.87 93.7975 20.8395C93.3693 19.934 92.699 19.1646 91.8607 18.6163C90.988 18.0641 89.9719 17.7814 88.9394 17.8036C87.9249 17.782 86.9272 18.0651 86.0753 18.6163C85.2418 19.172 84.5709 19.9393 84.1314 20.8395C83.6383 21.8663 83.393 22.9944 83.4153 24.1332C83.3918 25.2928 83.6368 26.4421 84.1314 27.4913C84.5635 28.3986 85.2389 29.1682 86.0825 29.7145C86.9354 30.2566 87.929 30.5355 88.9394 30.5164Z" fill="#054C2D"/>
<path d="M106.228 35.6467V4.77942H112.153V35.6467H106.228Z" fill="#054C2D"/>
<path d="M121.579 9.03244C120.437 9.03244 119.549 8.75677 118.908 8.19829C118.581 7.89879 118.325 7.52984 118.159 7.11849C117.993 6.70715 117.921 6.26385 117.949 5.82113C117.934 5.38751 118.015 4.95599 118.184 4.55658C118.353 4.15717 118.608 3.79948 118.93 3.50841C119.665 2.88018 120.613 2.55847 121.579 2.60981C122.717 2.60981 123.609 2.89622 124.246 3.46545C124.569 3.76338 124.823 4.12897 124.989 4.53615C125.155 4.94333 125.229 5.38208 125.205 5.82113C125.225 6.25872 125.147 6.69515 124.978 7.09927C124.809 7.50339 124.553 7.86521 124.228 8.15891C123.487 8.77333 122.54 9.08529 121.579 9.03244ZM118.658 35.6466V13.5791H124.586V35.6466H118.658Z" fill="#054C2D"/>
<path d="M139.178 35.6466C137.409 35.666 135.677 35.1411 134.216 34.143C132.714 33.1137 131.506 31.7108 130.712 30.0725C129.822 28.2275 129.379 26.199 129.419 24.1511C129.378 22.1064 129.829 20.0817 130.733 18.2475C131.551 16.6086 132.786 15.2135 134.313 14.2021C135.838 13.2102 137.624 12.6954 139.443 12.7235C140.458 12.7107 141.466 12.873 142.426 13.2032C143.289 13.4981 144.094 13.9429 144.803 14.5171C145.477 15.0625 146.061 15.71 146.535 16.436C147.003 17.1495 147.343 17.9395 147.538 18.7702L146.285 18.5626V13.1925H152.153V35.2278H146.188V29.9293L147.524 29.8075C147.295 30.6002 146.932 31.3475 146.45 32.0164C145.931 32.7287 145.304 33.3556 144.591 33.8745C143.833 34.4255 142.997 34.8611 142.11 35.1669C141.167 35.4912 140.176 35.6534 139.178 35.6466ZM140.807 30.5164C141.837 30.5367 142.85 30.2582 143.725 29.7145C144.573 29.1729 145.246 28.3986 145.665 27.4841C146.144 26.4304 146.378 25.2827 146.353 24.126C146.377 22.9901 146.142 21.8636 145.665 20.8323C145.235 19.9292 144.563 19.1624 143.725 18.6163C142.853 18.0645 141.839 17.7819 140.807 17.8036C139.793 17.782 138.795 18.065 137.943 18.6163C137.109 19.1745 136.439 19.9458 136.003 20.8502C135.51 21.877 135.265 23.0051 135.287 24.1439C135.263 25.3035 135.508 26.4528 136.003 27.502C136.435 28.4056 137.109 29.1716 137.95 29.7145C138.803 30.2566 139.797 30.5355 140.807 30.5164Z" fill="#054C2D"/>
<path d="M158.074 35.6467V13.5792H163.748L163.913 18.0865L162.746 18.5841C163.071 17.5559 163.635 16.6197 164.393 15.8525C165.213 15.0164 166.185 14.3445 167.257 13.8727C168.358 13.374 169.553 13.1176 170.762 13.1209C172.224 13.0697 173.673 13.4161 174.954 14.1234C176.112 14.8247 177.006 15.8879 177.499 17.1485C178.113 18.7363 178.404 20.4304 178.355 22.1319V35.6467H172.423V22.5902C172.449 21.7358 172.308 20.8845 172.007 20.0841C171.762 19.4643 171.312 18.9467 170.733 18.6163C170.085 18.2815 169.353 18.1446 168.628 18.2225C167.995 18.2166 167.366 18.3221 166.77 18.534C166.227 18.7265 165.73 19.0315 165.313 19.429C164.914 19.8116 164.589 20.2642 164.353 20.7644C164.114 21.2739 163.992 21.8304 163.995 22.3933V35.6395H158.074V35.6467Z" fill="#054C2D"/>
<path d="M193.613 35.6466C191.657 35.6796 189.73 35.1779 188.038 34.1955C186.347 33.2132 184.956 31.7876 184.015 30.0725C183.038 28.2695 182.545 26.2443 182.583 24.194C182.55 22.15 183.043 20.1318 184.015 18.3335C184.948 16.6051 186.338 15.1671 188.035 14.1774C189.731 13.1878 191.668 12.6847 193.631 12.7235C195.493 12.6995 197.339 13.0654 199.051 13.7975C200.579 14.4325 201.906 15.4707 202.889 16.8012L199.638 20.7393C199.227 20.191 198.734 19.7082 198.178 19.3073C197.598 18.8768 196.959 18.532 196.28 18.2834C195.604 18.0405 194.89 17.9193 194.172 17.9253C193.108 17.9054 192.06 18.1871 191.15 18.738C190.273 19.2828 189.559 20.0547 189.084 20.972C188.569 21.978 188.311 23.096 188.333 24.2263C188.312 25.3383 188.578 26.4369 189.106 27.4161C189.605 28.3335 190.329 29.1085 191.211 29.6679C192.108 30.2396 193.151 30.5369 194.215 30.5236C195.604 30.5421 196.961 30.1016 198.074 29.2706C198.658 28.8397 199.183 28.3356 199.638 27.7705L202.861 31.6907C201.807 32.9676 200.454 33.9639 198.922 34.5905C197.247 35.3126 195.438 35.6725 193.613 35.6466Z" fill="#054C2D"/>
<path d="M217.095 35.6467C214.92 35.6982 212.768 35.1956 210.84 34.186C209.108 33.2601 207.665 31.8738 206.67 30.18C205.647 28.4077 205.127 26.3902 205.166 24.3445C205.151 22.7546 205.434 21.176 206 19.6904C206.527 18.3173 207.322 17.0626 208.338 15.9993C209.349 14.9511 210.569 14.1267 211.918 13.5792C213.341 13.0015 214.865 12.7119 216.4 12.7272C217.831 12.7118 219.25 12.9883 220.571 13.5398C221.825 14.0646 222.956 14.8463 223.89 15.8347C224.832 16.839 225.562 18.0223 226.038 19.3145C226.548 20.7167 226.774 22.2061 226.704 23.6965L226.661 25.533H208.922L207.962 21.9029H221.767L221.101 22.6547V21.7131C221.053 20.9792 220.805 20.2724 220.385 19.6689C219.964 19.0618 219.398 18.5695 218.738 18.2369C218.037 17.8959 217.266 17.7242 216.486 17.7357C215.405 17.704 214.334 17.9505 213.375 18.4517C212.527 18.928 211.85 19.6579 211.438 20.5389C210.964 21.5857 210.735 22.7268 210.769 23.8755C210.738 25.0854 211.033 26.2812 211.624 27.3374C212.195 28.3124 213.036 29.1018 214.045 29.6107C215.186 30.1774 216.447 30.4587 217.721 30.4306C218.632 30.4425 219.537 30.2872 220.392 29.9723C221.333 29.5858 222.206 29.0503 222.977 28.3863L225.812 32.3495C225.009 33.0716 224.112 33.6822 223.145 34.1646C222.189 34.6449 221.181 35.016 220.141 35.2708C219.145 35.5174 218.122 35.6436 217.095 35.6467Z" fill="#054C2D"/>
<path d="M38.5608 40H32.8972C32.8972 35.5214 31.7336 32.0236 29.9114 29.2956C26.7395 30.7599 22.7513 31.6943 17.9576 32.0773C14.7062 32.3395 11.439 32.3395 8.18759 32.0773L5.63501 31.8232V13.9336H8.46684C13.5307 14.0727 18.5266 15.1343 23.2095 17.0661C26.0261 18.2318 28.6333 19.8498 30.9281 21.8563C31.5811 21.1832 32.092 20.3856 32.4302 19.511C32.7685 18.6364 32.9273 17.7027 32.8972 16.7654C32.9023 15.8426 32.7138 14.9289 32.3438 14.0835C31.9738 13.238 31.4305 12.4796 30.7491 11.8572C25.2215 6.44411 10.8583 5.56342 5.78537 5.67082L5.65649 7.12974e-06C6.4978 7.12974e-06 26.3636 -0.357999 34.7266 7.80812C35.9516 8.95316 36.926 10.3396 37.5884 11.8801C38.2507 13.4205 38.5867 15.0815 38.5751 16.7583C38.6138 18.5077 38.2855 20.2459 37.6116 21.8607C36.9376 23.4756 35.9329 24.9314 34.6621 26.1344C37.2326 29.9866 38.5608 34.6442 38.5608 40ZM11.2987 26.5819C15.1544 26.7037 21.0221 26.4531 25.6654 24.8886C20.8574 21.3264 14.8035 20.1629 11.2987 19.7834V26.5819Z" fill="#054C2D"/>
</svg>
